<?xml version="1.0" encoding="UTF-8" standalone="no"?>
<svg
   height="32"
   width="32"
   version="1.0"
   viewBox="0 0 32 32"
   id="svg834"
   xmlns="http://www.w3.org/2000/svg">
  <defs
     id="defs838" />
  <path
     id="path7467"
     style="color:#000000;fill:#ffffff;stroke-width:1.33333;stroke-linecap:round;stroke-linejoin:bevel;stroke-miterlimit:3;-inkscape-stroke:none"
     d="M 5.75 2.0839844 C 3.7302011 2.0839844 2.0839844 3.7302011 2.0839844 5.75 L 2.0839844 26.25 C 2.0839844 28.269799 3.7302011 29.916016 5.75 29.916016 L 26.25 29.916016 C 28.269799 29.916016 29.916016 28.269799 29.916016 26.25 L 29.916016 5.75 C 29.916016 3.7302011 28.269799 2.0839844 26.25 2.0839844 L 5.75 2.0839844 z M 22.078125 4.9726562 C 23.138511 4.9381162 24.146594 5.26964 24.904297 6.0273438 L 26.181641 7.3066406 C 27.913533 9.0385311 27.414961 12.07332 25.419922 14.068359 L 20.595703 18.892578 C 18.600663 20.887618 15.565875 21.386188 13.833984 19.654297 L 12.554688 18.375 C 12.370261 18.190574 12.21286 17.990455 12.078125 17.779297 L 13.804688 16.019531 C 13.879431 16.294785 14.01611 16.537593 14.205078 16.726562 L 15.482422 18.003906 C 16.236115 18.757597 17.82235 18.63468 19.080078 17.376953 L 23.904297 12.552734 C 25.162025 11.295005 25.28299 9.7107228 24.529297 8.9570312 L 23.251953 7.6796875 C 22.498258 6.9259924 20.913978 7.0469602 19.65625 8.3046875 L 17.320312 10.640625 C 16.680477 10.01565 15.75304 9.8128757 14.878906 10.050781 L 18.140625 6.7890625 C 19.262833 5.6668535 20.714772 5.0170648 22.078125 4.9726562 z M 15.341797 11.291016 C 16.402182 11.256476 17.408312 11.588 18.166016 12.345703 L 19.445312 13.625 C 19.629728 13.809433 19.787129 14.009552 19.921875 14.220703 L 18.195312 15.980469 C 18.120567 15.705214 17.98389 15.462405 17.794922 15.273438 L 16.517578 13.996094 C 15.763886 13.242403 14.17765 13.36532 12.919922 14.623047 L 8.0957031 19.447266 C 6.837979 20.704994 6.7170116 22.289278 7.4707031 23.042969 L 8.7480469 24.320312 C 9.5017391 25.074006 11.086023 24.953039 12.34375 23.695312 L 14.679688 21.359375 C 15.319524 21.98435 16.246964 22.187125 17.121094 21.949219 L 13.859375 25.210938 C 11.864336 27.205975 8.8275976 27.704549 7.0957031 25.972656 L 5.8183594 24.693359 C 4.0864668 22.961467 4.5850403 19.92668 6.5800781 17.931641 L 11.404297 13.107422 C 12.526506 11.985212 13.978445 11.335424 15.341797 11.291016 z " />
</svg>
